<?xml version="1.0" encoding="UTF-8"?>
<svg id="Calque_2" data-name="Calque 2" xmlns="http://www.w3.org/2000/svg" viewBox="0 0 262.95 256">
  <defs>
    <style>
      .cls-1 {
        fill: #223468;
      }

      .cls-2 {
        fill: #ea590e;
      }
    </style>
  </defs>
  <g id="Calque_1-2" data-name="Calque 1">
    <g>
      <path class="cls-2" d="M136.94,0c8.13,1.62,16.57,3.65,23.72,8.9l82.29,60.43c18.63,13.68,24.09,37.76,17.06,59.2l-29.46,89.93c-6.56,20.02-22.81,34.93-43.61,37.54h-108.96c-19.11-1.81-37.52-15.17-43.66-33.82L1.89,123.67c-1.21-3.66-1.21-7.04-1.63-10.61-1.83-15.56,6.37-34.81,19.22-44.09L99.55,11.15c8.39-6.06,17.38-9.84,27.39-11.15h10ZM182.54,238.92c15.14-1.25,26.73-11.09,31.3-25.14l30.61-94.13c4.28-13.16-.85-28.52-12-36.7l-80.73-59.19c-11.94-8.75-28.41-8.38-40.33.21L30.65,82.16c-11.86,8.55-16.1,24.47-11.58,38.21l31.55,95.96c4.31,13.12,16.51,21.25,29.99,22.61h101.93Z"/>
      <g>
        <path class="cls-2" d="M187.43,178.75c-3.58,13.15-15.08,21.63-28.39,21.8l-3.21,9.42c-1.5,4.39-6.06,7.61-10.87,7.61h-25.55c-4.72,0-9.18-3.02-10.69-7.33l-3.39-9.73c-13.37.35-25.09-7.96-29.18-20.74l-12.78-39.28,22.7.09,11.02,33.74c1.33,2.59,3.85,4.56,7,4.56l55.16-.02c3.75,0,6.51-2.73,7.48-6.05l10.62-32.3h22.64s-12.56,38.25-12.56,38.25Z"/>
        <path class="cls-1" d="M180.8,130.22l3.08-9.76c1.15-3.94-.69-6.95-3.79-9.21l-40.35-29.55.02-24.47c3.19.84,5.67,2.03,8.25,3.79l44.16,32.13c12.02,8.74,17.03,23.31,11.07,37.2l-22.44-.13Z"/>
        <path class="cls-1" d="M79.53,120.59l2.98,9.45-22.58-.08c-5.28-12.1-2.59-27.16,8.38-35.12l45.45-32.96c3.18-1.99,5.98-3.85,9.65-4.62l-.02,24.27-41.7,30.15c-2.77,2-3.39,5.81-2.17,8.9Z"/>
        <ellipse class="cls-2" cx="131.63" cy="141.28" rx="22.07" ry="22.07"/>
      </g>
    </g>
  </g>
</svg>